<svg xmlns="http://www.w3.org/2000/svg" width="922" height="623" viewBox="0 0 922 623">
  <g id="Home" transform="translate(109)">
    <g id="Clock" transform="translate(505 85)">
      <circle id="Clock-Frame" cx="53" cy="53" r="53" fill="#f2f2f2"/>
      <circle id="Time" cx="3" cy="3" r="3" transform="translate(50 8)" fill="rgba(0,0,0,0.1)"/>
      <circle id="Time-2" data-name="Time" cx="3" cy="3" r="3" transform="translate(8 50)" fill="rgba(0,0,0,0.1)"/>
      <circle id="Time-3" data-name="Time" cx="3" cy="3" r="3" transform="translate(92 50)" fill="rgba(0,0,0,0.1)"/>
      <circle id="Time-4" data-name="Time" cx="3" cy="3" r="3" transform="translate(50 92)" fill="rgba(0,0,0,0.1)"/>
      <path id="Hand" d="M53,17l2,35H51Z" fill="#afb9c5" fill-rule="evenodd"/>
      <path id="Hand-2" data-name="Hand" d="M62.213,50.213l2,24h-4Z" transform="translate(150.196 62.213) rotate(135)" fill="#afb9c5" fill-rule="evenodd"/>
      <circle id="Time-5" data-name="Time" cx="4" cy="4" r="4" transform="translate(49 49)" fill="#c5cfd6"/>
    </g>
    <g id="Background-Shape-2" transform="translate(-109 146.879)" opacity="0.346">
      <path id="Background-Shape" d="M.281,140.9C9.657,245.681,512.724,447.912,606.117,348.669s3.606-285.5-192.109-333.19S-9.1,36.127.281,140.9Z" transform="translate(643.224 375.327) rotate(180)" fill="#f2f2f2" fill-rule="evenodd"/>
      <path id="Background-Shape-2-2" data-name="Background-Shape" d="M244.2,275.152c8.4-89.012,459.025-260.816,542.682-176.5S849.361,360.3,674.046,400.813,235.8,364.164,244.2,275.152Z" transform="translate(87.811 27.351)" fill="#dde3e9" fill-rule="evenodd"/>
    </g>
    <g id="Hanging-Lamp" transform="translate(25)">
      <g id="Light" transform="translate(0 152.673)">
        <ellipse id="Hanging-Lamp-Light" cx="42.5" cy="22.5" rx="42.5" ry="22.5" transform="translate(7 12)" fill="#f2f2f2"/>
        <path id="Hanging-Lamp-2" data-name="Hanging-Lamp" d="M99,50C99,22.386,76.838,0,49.5,0S0,22.386,0,50" fill="#dde3e9" fill-rule="evenodd"/>
      </g>
      <rect id="Wire" width="5" height="160" transform="translate(47)" fill="#dde3e9"/>
    </g>
    <g id="Hanging-Lamp-3" data-name="Hanging-Lamp" transform="translate(115)" opacity="0.7">
      <g id="Light-2" data-name="Light" transform="translate(0 113)">
        <ellipse id="Hanging-Lamp-Light-2" data-name="Hanging-Lamp-Light" cx="31.768" cy="18.158" rx="31.768" ry="18.158" transform="translate(5.232 9.684)" fill="#f2f2f2"/>
        <path id="Hanging-Lamp-4" data-name="Hanging-Lamp" d="M74,40.351C74,18.066,57.435,0,37,0S0,18.066,0,40.351" fill="#dde3e9" fill-rule="evenodd"/>
      </g>
      <rect id="Wire-2" data-name="Wire" width="5" height="136" transform="translate(35)" fill="#dde3e9"/>
    </g>
    <g id="Lamp" transform="translate(620 198)">
      <path id="Body" d="M60,36.236l18.568-18.58a8,8,0,0,1,11.314,0l0,0,49.432,49.457A16,16,0,0,1,144,78.424V406" fill="none" stroke="#cbcbcb" stroke-width="8" fill-rule="evenodd"/>
      <rect id="Lamp-Base" width="59" height="7" rx="3" transform="translate(114 405)" fill="#afb9c5"/>
      <g id="Lamp-Top" transform="translate(48.79 1) rotate(45)">
        <path id="Lamp-2" data-name="Lamp" d="M33.03,1.384h0a33,33,0,0,1,33,33v28H.03v-28A33,33,0,0,1,33.03,1.384Z" fill="#c5cfd6" fill-rule="evenodd"/>
        <ellipse id="Lamp-3" data-name="Lamp" cx="33" cy="6.5" rx="33" ry="6.5" transform="translate(0.209 54.945)" fill="#f2f2f2"/>
      </g>
    </g>
    <g id="Big-Leaf-Plant" transform="translate(-93 384)">
      <g id="Big-Ass-Leaf" transform="translate(22)">
        <path id="leaf" d="M25.258,1.173a16.915,16.915,0,0,1,8.586.9c5.665,2.4,7.275,9.1,7.2,14.536-.084,5.854-1.327,12.249,3.124,16.966,2.046,2.169,4.591,3.828,6.6,6.037a28.535,28.535,0,0,1,5.078,7.96c2.29,5.326,3.414,11.59,1.32,17.178-1.844,4.919-6.483,9.359-5.48,14.953C52.729,85.543,58.612,90,62.29,94.351c4.163,4.919,8,11.205,8.625,17.655.6,6.182-2.087,12.434-6.217,17.107C56.448,138.451,44.045,143.028,31.54,143c-5.31-.012-11.321-.252-15.9-3.1a8.767,8.767,0,0,1-3.005-3.247,10.583,10.583,0,0,0-2.906-2.909,17.249,17.249,0,0,1-5.535-7.392c-4.538-11.233-.911-25.129,5.441-35.1,1.505-2.363,2.737-4.637,2.006-7.454-.763-2.94-2.638-5.592-4.3-8.12a65.318,65.318,0,0,1-4.792-7.582A17.2,17.2,0,0,1,1.066,59.2,30.237,30.237,0,0,1,7.578,43.336C11,38.83,15.022,34.519,15.031,28.615c.01-6.257-4.173-11.824-2.391-18.186a12.123,12.123,0,0,1,4.609-6.916C19.539,2,22.564,1.5,25.258,1.173Z" fill="#dde3e9" fill-rule="evenodd"/>
        <path id="middle-thing" d="M23.386,11.176a1.442,1.442,0,0,1,1.835-1.125c1.033.289,1.013,1.254.986,2.114a28.408,28.408,0,0,0,.934,7.776c1.32,5.332,3.761,10.245,5.694,15.366s2.839,10.4,1.705,15.816C33.473,56.23,31.795,61.2,30.7,66.315c-.964,4.506-1.989,9.257-.522,13.751,1.412,4.326,4.534,7.849,6.783,11.758a55.438,55.438,0,0,1,6.995,26.31,49.2,49.2,0,0,1-.983,12.828c-.573,2.423-1.343,5.7-3.419,7.37-.957.772-2.595,1.038-3.4-.1-.757-1.071-.093-2.73.147-3.872a58.7,58.7,0,0,0,1-15.015,54.219,54.219,0,0,0-2.346-14.36,48.6,48.6,0,0,0-6.117-11.95c-2.588-3.842-5.278-7.691-6.347-12.243-1.086-4.623-.2-9.327.976-13.862,1.248-4.8,2.883-9.456,4.573-14.122A24.779,24.779,0,0,0,29.363,39.2C27.567,29.794,22.76,20.968,23.386,11.176Z" fill="#c5cfd6" fill-rule="evenodd"/>
      </g>
      <g id="Big-Ass-Leaf-2" data-name="Big-Ass-Leaf" transform="translate(32 11)">
        <path id="leaf-2" data-name="leaf" d="M90.892,1.582a21.494,21.494,0,0,1,9.593,5.536c5.373,5.791,3.724,14.543.758,20.935-3.193,6.88-8.031,13.8-5.3,21.69,1.254,3.629,3.362,6.916,4.55,10.573a36.854,36.854,0,0,1,1.749,12.056c-.129,7.49-2.121,15.483-7.531,21-4.763,4.859-12.551,7.7-14.332,14.833-1.858,7.445,2.684,15.782,4.7,22.835,2.283,7.983,3.455,17.412.784,25.368-2.559,7.625-9.02,13.619-16.334,17-14.613,6.75-31.579,5.711-46.232-.828-6.221-2.777-13.145-6.187-17.011-11.945a11.267,11.267,0,0,1-1.809-5.4A13.593,13.593,0,0,0,2.6,150.278,22.239,22.239,0,0,1,.02,138.656c.615-15.645,12.214-30.192,24.936-38.684,3.015-2.012,5.662-4.06,6.293-7.772.659-3.874-.139-7.986-.748-11.839-.6-3.807-1.537-7.6-1.612-11.459a22.445,22.445,0,0,1,2.959-11.283c3.6-6.647,9.379-11.689,16.021-15.372,6.4-3.547,13.392-6.555,16.523-13.532,3.319-7.4,1.355-16.154,6.808-22.751C73.458,3.233,76.625.807,80.262.182,83.749-.417,87.558.57,90.892,1.582Z" fill="#dde3e9" fill-rule="evenodd"/>
        <path id="middle-thing-2" data-name="middle-thing" d="M83.651,13.811a1.838,1.838,0,0,1,2.735-.37c1.057.883.528,2.016.046,3.02a37.221,37.221,0,0,0-2.98,9.7c-1.248,7.006-.968,14.1-1.389,21.182s-2.128,13.805-6.289,19.624c-3.923,5.486-8.49,10.5-12.446,15.977-3.487,4.831-7.174,9.92-7.812,16.012-.614,5.863,1.191,11.672,1.773,17.48,1.2,12.023-1.084,23.737-5.6,34.823a64.271,64.271,0,0,1-7.867,14.676c-1.939,2.57-4.554,6.044-7.858,6.936-1.524.412-3.578-.13-3.922-1.9-.323-1.666,1.321-3.282,2.2-4.509A76.705,76.705,0,0,0,43.275,149.2a71.029,71.029,0,0,0,4.778-18.235,63.55,63.55,0,0,0-.895-17.357c-1.014-5.905-2.143-11.875-1.009-17.825,1.151-6.044,4.647-11.153,8.4-15.9,3.971-5.026,8.323-9.687,12.743-14.327a32.356,32.356,0,0,0,8.673-15.424C78.79,38.049,77.791,25.078,83.651,13.811Z" fill="#c5cfd6" fill-rule="evenodd"/>
      </g>
      <g id="Big-Ass-Leaf-3" data-name="Big-Ass-Leaf" transform="translate(0 57)">
        <path id="leaf-3" data-name="leaf" d="M13.306,0C19.2,0,24.382,3.124,27.953,7.558c4.18,5.19,5.024,11.528,6.721,17.714A15.813,15.813,0,0,0,39.517,33.5c2.315,1.9,5.255,2.283,8.026,3.212A18.73,18.73,0,0,1,59.321,48.5c2.155,6.659-.128,13.374.265,20.122.361,6.2,6.471,10.064,11.387,13.035,4.848,2.93,9.215,5.672,10.675,11.379,1.548,6.053,2.068,12.809-.077,18.788-3.57,9.956-14.019,14.34-24.116,15.019-9.163.617-20.684-.351-27.565-7-4.118-3.98-5.609-9.547-5.424-15.085a45.917,45.917,0,0,1,1.679-10.184,45.941,45.941,0,0,0,1.71-7.145c.64-6.484-5.354-7.73-10.455-9.51A24.881,24.881,0,0,1,3.224,65.425C.285,59.882-.948,53.658.814,47.554A20.864,20.864,0,0,1,5.559,39.2c.974-1.059,2.348-1.942,3.227-3.054a4.12,4.12,0,0,0,.359-3.6C7.837,26.931,3.762,22.278,2.3,16.669.989,11.605,1.767,5.3,6.4,2.038A12.089,12.089,0,0,1,13.306,0Z" fill="#c5cfd6" fill-rule="evenodd"/>
        <path id="middle-thing-3" data-name="middle-thing" d="M21.338,14.641c6.247,6.655,7.945,15.684,8.444,24.435.279,4.907-.011,10.083,1.43,14.843,1.234,4.074,4.125,7.188,7.106,10.131,6,5.925,12.693,11.948,14.448,20.523,1.03,5.032.335,10.23,1.758,15.207a41.825,41.825,0,0,0,6.343,12.788c2.231,3.077,5.138,5.432,7.576,8.3.744.876,1.81,2.164,1.5,3.4-.359,1.447-2.2,1.9-3.511,1.678-3.049-.53-5.616-3.442-7.61-5.559a47.854,47.854,0,0,1-7.407-10.159,42.7,42.7,0,0,1-4.8-13.2c-.8-4.827-.4-9.858-2.223-14.491-3.067-7.8-10.5-12.4-15.883-18.471-6.7-7.57-5.7-16.993-5.015-26.305.377-5.118.752-10.9-1.834-15.569-.987-1.784-3.188-3.447-3.612-5.474C17.658,14.858,19.78,12.981,21.338,14.641Z" fill="#afb9c5" fill-rule="evenodd"/>
      </g>
      <path id="Base" d="M28,181c0,38.058,6.211,58,39,58s39-19.942,39-58Z" fill="#9ef1c9" fill-rule="evenodd"/>
    </g>
    <g id="Table" transform="translate(26 366)">
      <g id="Lamp-4" data-name="Lamp" transform="translate(23)">
        <rect id="Lamp-Base-2" data-name="Lamp-Base" width="38" height="9" rx="2" transform="translate(21 144)" fill="#afb9c5"/>
        <path id="Lamp-Body" d="M31,115a167.692,167.692,0,0,0,7.217-44h4.566A167.692,167.692,0,0,0,50,115h6.5a15.5,15.5,0,0,1,0,31h-33a15.5,15.5,0,0,1,0-31Z" fill="#dde3e9" fill-rule="evenodd"/>
        <path id="Shade" d="M4.622,1.679Q21.811,0,39,0T73.378,1.679L78,81.133Q58.5,83,39,83T0,81.133Z" fill="#c5cfd6" fill-rule="evenodd"/>
      </g>
      <path id="Trazado_1" data-name="Trazado 1" d="M21,153H125V257H104V175H21v82H0V153Z" fill="#f2f2f2" fill-rule="evenodd"/>
    </g>
    <g id="Plant" transform="translate(633 328)">
      <g id="Succulents" transform="translate(13)">
        <path id="Thi-Succs_" data-name="Thi-Succs!" d="M3.381.208C12.214,21.2,27.229,35.78,35.182,57.6c4.716,12.943,6.682,27.015,6.8,41.427.065,7.828-.071,15.662-.108,23.49-.036,7.634-.243,15.219-.891,22.8-.651,7.625-1.38,15.16-1.7,22.832-.25,5.978-.365,12.932-2.391,18.385-1.611,4.337-5.707,4.972-6.794-.288a42.041,42.041,0,0,1-.461-9.193c.086-3.855.31-7.7.424-11.559.46-15.468-.136-30.938.175-46.412.3-15.119,2.248-30.221.1-45.239-1.776-12.4-6.287-23.051-11.471-33.26C13.874,30.771,8.445,21.187,5.075,10.014A53.841,53.841,0,0,1,3,.03Q3.235-.079,3.381.208Z" fill="#a8efcd" fill-rule="evenodd"/>
        <path id="Thi-Succs_2" data-name="Thi-Succs!" d="M.974,41.617C2.723,42.88,3.7,44.728,4.882,46.55c1.47,2.267,3.2,4.313,4.668,6.581C12.615,57.86,15.308,62.879,18.1,67.8a96.066,96.066,0,0,1,11.326,30.1c2.067,11.2,2.625,22.753,3.492,34.117.92,12.044,1.846,24.176,1.968,36.267.055,5.417.347,11.167-.3,16.546-.4,3.348-1.916,6.2-5.323,6.175-7.236-.058-10.634-8.073-12.053-14.646-2.089-9.68-2.506-19.961-2.175-29.86.4-11.936,2.471-23.692,3.368-35.582.95-12.587.413-24.952-3.914-36.8-2.186-5.989-4.724-11.835-7-17.784a57.491,57.491,0,0,0-3.075-7.494C2.951,46.208,1.142,43.826,0,41Z" fill="#6bcd9e" fill-rule="evenodd"/>
        <path id="Thi-Succs_3" data-name="Thi-Succs!" d="M84.334,16.518,85,16a66.168,66.168,0,0,1-2.676,7.341,59.9,59.9,0,0,0-1.729,7.136c-1.255,5.681-2.7,11.234-3.889,16.963-2.346,11.337-1.9,23.55-.364,36.128,1.453,11.881,3.751,23.745,4.845,35.624a163.547,163.547,0,0,1,.432,29.409c-.588,6.383-2.517,14.005-7.771,13.361-2.474-.3-3.764-3.281-4.284-6.642-.835-5.4-1.01-11.074-1.335-16.442-.726-11.982-.871-23.927-1.015-35.786-.136-11.188-.51-22.6.238-33.5a102.688,102.688,0,0,1,6.2-28.758c1.7-4.61,3.317-9.328,5.225-13.721.915-2.107,2.033-3.97,2.949-6.075C82.563,19.339,83.148,17.6,84.334,16.518Z" fill="#a8efcd" fill-rule="evenodd"/>
        <path id="Thi-Succs_4" data-name="Thi-Succs!" d="M3.209,76.3c.957-1.607,3.063,3.692,3.384,4.358q-.2-.5-.409-.993A44.093,44.093,0,0,1,10.9,89.734c1.069,3.585,1.987,7.242,2.99,10.853,1.882,6.774,4.31,13.356,6.016,20.191a65.7,65.7,0,0,1,1.678,20.1,171.682,171.682,0,0,0-.186,21.587c.233,3.418,1.344,6.6,2.1,9.892s1.362,6.632,2.263,9.885c.207-.424.233.993.233,1.1a6.832,6.832,0,0,1-.381,2.265,6.1,6.1,0,0,1-3.841,4.212c-3.456.987-6.666-2.157-7.78-5.477A90.86,90.86,0,0,1,10.755,169.3,70.881,70.881,0,0,1,10.1,155.44c.409-9.179,2.07-18.238,2.519-27.414.489-9.99-1.49-19.377-3.147-29.1A84.98,84.98,0,0,0,6.356,85.134a38.759,38.759,0,0,0-2.309-5.072C3.558,79.112,2.569,77.418,3.209,76.3Z" fill="#a8efcd" fill-rule="evenodd"/>
        <path id="Thi-Succs_5" data-name="Thi-Succs!" d="M31.252,60.7c-.4,11.445-1.08,22.8-2.606,34.127C27.089,106.38,25.3,117.9,23.8,129.463c-1.459,11.259-2.987,22.705-2.784,34.122.15,8.408-1.244,22.634,8.095,26.784,9.459,4.2,11.488-13.746,12.109-19.67,1.19-11.366.8-22.852.227-34.28-.593-11.73-1.583-23.4-2.81-35.085-1.363-12.981-2.432-26.021-3.29-39.038-.425-6.439-.529-12.867-.412-19.308.111-6.077-.12-12.218-2.281-17.988l-.339.246" fill="#7bedb6" fill-rule="evenodd"/>
        <path id="Thi-Succs_6" data-name="Thi-Succs!" d="M80.083,96.955c-1.7,2.478-3.416,4.932-5.022,7.557-2.874,4.7-5.474,9.92-6.256,16.635-1.636,14.053-.324,29.232-.007,43.716.065,2.959-.31,5.83.857,8.647,1.058,2.554,3.035,4.5,4.92,4.49,4.035-.023,3.42-9.9,3.426-14.254.012-7.623-.843-15.324-.769-22.94a159.266,159.266,0,0,1,1.626-22.278,128.363,128.363,0,0,1,4.87-20.718c.3-.9,2.429-7.872.415-6.671" fill="#6bcd9e" fill-rule="evenodd"/>
        <path id="Thi-Succs_7" data-name="Thi-Succs!" d="M62.262,22c-2.653,0-2.637,13.226-2.717,14.925-.288,6.131-.221,12.263-.4,18.395-.4,13.381-.889,26.88-2.9,40.107-1.082,7.121-2.337,14.21-3.686,21.276-1.353,7.087-3.17,14.165-4.06,21.342-.855,6.9-.372,13.933-.255,20.866a182.661,182.661,0,0,0,1.242,20.878c.225,1.706.49,3.407.773,5.1a40.444,40.444,0,0,0,.5,4.51c.639,2.151,3.379,2.855,5.224,2.519,4.993-.911,8.181-7.18,9.887-11.76,2.178-5.849,3.334-12.193,4.474-18.356a160.442,160.442,0,0,0,2.4-21.181c.722-14.448-.2-28.911-1.24-43.313-.576-8.009-1.241-15.984-2.258-23.943-1.013-7.926-2.313-15.816-3.16-23.765-.615-5.777-1.221-11.561-1.619-17.36-.1-1.383-.175-10.241-2.2-10.241" fill="#7bedb6" fill-rule="evenodd"/>
        <path id="Thi-Succs_8" data-name="Thi-Succs!" d="M58.941,118.139c-.432-13.886-6.014-74.88-7.284-91.672-.318-4.2-3.375-21.7-3.772-26.467-1.075,1.347-.983,22.309-.972,27.126.013,4.765-.578,9.45-.882,14.189-.31,4.836-7.458,67.285-8.386,71.932-1.846,9.244-3.081,18.729-4.034,28.181-.928,9.211-2.371,18.93-1.129,28.19a28.3,28.3,0,0,0,1.473,6.188c.795,2.116,1.339,4.073,1.977,6.287,1.026,3.566,2.883,6.7,5.736,8.169,5.849,3.019,8.99-3.815,10.583-9.765a159.225,159.225,0,0,0,4.94-29.138c.847-11.041,2.1-22.1,1.75-33.22" fill="#6bcd9e" fill-rule="evenodd"/>
      </g>
      <g id="Planter" transform="translate(0 159)">
        <rect id="Vase" width="91" height="91" rx="2" transform="translate(10)" fill="#dfe4ea"/>
        <rect id="Leg" width="10" height="113" rx="2" transform="translate(0 10)" fill="#c5cfd6"/>
        <rect id="Leg-2" data-name="Leg" width="10" height="113" rx="2" transform="translate(50 10)" fill="#c5cfd6"/>
        <rect id="Leg-3" data-name="Leg" width="10" height="113" rx="2" transform="translate(101 10)" fill="#c5cfd6"/>
      </g>
    </g>
  </g>
</svg>
